<svg width="33" height="32" viewBox="0 0 33 32" fill="none" xmlns="http://www.w3.org/2000/svg">
<path d="M11.6477 1.0525C8.45043 2.16167 5.69309 4.26691 3.78071 7.059C1.86833 9.85109 0.901709 13.1829 1.02284 16.5649C1.14396 19.947 2.34645 23.201 4.45367 25.8492C6.56089 28.4973 9.46178 30.3999 12.7302 31.2775C15.38 31.9612 18.1563 31.9913 20.8202 31.365C23.2335 30.8229 25.4647 29.6634 27.2952 28C29.2004 26.2159 30.5833 23.9462 31.2952 21.435C32.0688 18.7041 32.2065 15.8323 31.6977 13.04H16.8177V19.2125H25.4352C25.263 20.197 24.8939 21.1366 24.3501 21.9751C23.8063 22.8136 23.0989 23.5338 22.2702 24.0925C21.2181 24.7888 20.0318 25.2572 18.7877 25.4675C17.5401 25.6995 16.2604 25.6995 15.0127 25.4675C13.7481 25.2063 12.5518 24.6844 11.5002 23.935C9.8106 22.739 8.54192 21.0398 7.87523 19.08C7.19745 17.0835 7.19745 14.919 7.87523 12.9225C8.3498 11.523 9.13431 10.2488 10.1702 9.19499C11.3557 7.96686 12.8566 7.08899 14.5081 6.65769C16.1597 6.22638 17.8981 6.25832 19.5327 6.75C20.8097 7.1418 21.9775 7.82669 22.9427 8.75C23.9144 7.78333 24.8844 6.81416 25.8527 5.8425C26.3527 5.32 26.8977 4.82249 27.3902 4.2875C25.9166 2.91629 24.1869 1.84926 22.3002 1.1475C18.8645 -0.10003 15.1052 -0.133556 11.6477 1.0525Z" fill="white"/>
<path d="M11.6479 1.05249C15.1051 -0.134368 18.8644 -0.101725 22.3004 1.14499C24.1874 1.85152 25.9163 2.92369 27.3879 4.29999C26.8879 4.83499 26.3604 5.33499 25.8504 5.85499C24.8804 6.82332 23.9113 7.78832 22.9429 8.74999C21.9777 7.82668 20.8099 7.1418 19.5329 6.74999C17.8989 6.25659 16.1605 6.22281 14.5085 6.65235C12.8565 7.08188 11.3547 7.95814 10.1679 9.18499C9.13201 10.2388 8.3475 11.513 7.87293 12.9125L2.69043 8.89999C4.54545 5.22139 7.7573 2.40755 11.6479 1.05249Z" fill="#FF3D00"/>
<path d="M1.31488 12.875C1.59322 11.4945 2.05569 10.1575 2.68988 8.90002L7.87238 12.9225C7.1946 14.9191 7.1946 17.0835 7.87238 19.08C6.14571 20.4134 4.41821 21.7534 2.68988 23.1C1.10275 19.9408 0.618707 16.3413 1.31488 12.875Z" fill="#FFC107"/>
<path d="M16.8175 13.0375H31.6975C32.2062 15.8298 32.0686 18.7016 31.295 21.4325C30.5831 23.9437 29.2002 26.2133 27.295 27.9975C25.6225 26.6925 23.9425 25.3975 22.27 24.0925C23.0992 23.5332 23.8069 22.8122 24.3508 21.9728C24.8946 21.1334 25.2634 20.1928 25.435 19.2075H16.8175C16.815 17.1525 16.8175 15.095 16.8175 13.0375Z" fill="#1976D2"/>
<path d="M2.6875 23.1C4.41583 21.7667 6.14333 20.4267 7.87 19.08C8.53802 21.0405 9.80851 22.7398 11.5 23.935C12.5549 24.6809 13.7537 25.1986 15.02 25.455C16.2676 25.6871 17.5474 25.6871 18.795 25.455C20.0391 25.2447 21.2253 24.7764 22.2775 24.08C23.95 25.385 25.63 26.68 27.3025 27.985C25.4722 29.6493 23.241 30.8097 20.8275 31.3525C18.1635 31.9788 15.3873 31.9488 12.7375 31.265C10.6418 30.7054 8.68419 29.719 6.9875 28.3675C5.19182 26.9416 3.72509 25.1448 2.6875 23.1Z" fill="#4CAF50"/>
</svg>
